<svg xmlns="http://www.w3.org/2000/svg" viewBox="0 0 24 24" fill="currentColor">
  <path d="M21.8537 2.16095C20.2912 4.45358 17.8068 7.61011 16.0334 9.20455C14.2599 10.799 12.5219 11.9604 10.7485 13.0573C8.97507 14.1541 7.13028 15.0793 5.2855 16.1116C3.44072 17.1439 1.59594 18.3052 0 19.8997C1.27275 18.2407 2.54551 16.7108 3.8182 15.3101C5.09096 13.9094 6.36372 12.5087 7.63648 11.108C8.90924 9.7073 10.182 8.30661 11.4548 6.90591C12.7275 5.50522 14.0003 4.10452 15.6982 2.57099C17.1561 1.24891 19.2297 0.216618 21.2033 0C21.592 0.735721 21.8537 1.40757 21.8537 2.16095ZM22.612 3.99424C22.3574 6.03059 21.521 8.00307 20.2304 9.71193C18.9398 11.4208 17.2237 12.8074 15.2465 13.7332C13.2693 14.6591 11.0962 15.0961 8.9046 15.0039C6.71305 14.9117 4.5773 14.2932 2.67285 13.1994C4.82671 13.8245 7.12055 13.8245 9.27441 13.1994C11.4283 12.5743 13.3642 11.3485 14.8707 9.6491C16.3773 7.9497 17.3982 5.84237 17.8179 3.57381C18.2376 1.30525 18.0405 -0.964654 17.251 -3.06418C19.0888 -2.31079 20.6405 -0.932044 21.6539 0.846991C22.6673 2.62603 23.0877 4.70203 22.8537 6.75741C22.8005 5.90052 22.6453 5.01972 22.3836 4.21507C22.3836 4.21507 22.612 3.99424 22.612 3.99424Z"/>
</svg>
